<?xml version="1.0" encoding="UTF-8" standalone="no"?>
<!DOCTYPE svg PUBLIC "-//W3C//DTD SVG 1.1//EN"
 "http://www.w3.org/Graphics/SVG/1.1/DTD/svg11.dtd">
<!-- Generated by graphviz version 2.40.1 (20161225.0304)
 -->
<!-- Title: %3 Pages: 1 -->
<svg width="879pt" height="404pt"
 viewBox="0.00 0.00 879.49 404.00" xmlns="http://www.w3.org/2000/svg" xmlns:xlink="http://www.w3.org/1999/xlink">
<g id="graph0" class="graph" transform="scale(1 1) rotate(0) translate(4 400)">
<title>project plan</title>
<polygon fill="#ffffff" stroke="transparent" points="-4,4 -4,-400 875.4867,-400 875.4867,4 -4,4"/>
<!-- so -->
<g id="node1" class="node">
<title>so</title>
<g id="a_node1"><a xlink:href="sql-overview/" xlink:title="sql&#45;overview">
<ellipse fill="none" stroke="#000000" cx="56.545" cy="-378" rx="56.59" ry="18"/>
<text text-anchor="middle" x="56.545" y="-374.3" font-family="Times,serif" font-size="14.00" fill="#000000">sql&#45;overview</text>
</a>
</g>
</g>
<!-- itp -->
<g id="node2" class="node">
<title>itp</title>
<g id="a_node2"><a xlink:href="intro_to_parsing/" xlink:title="intro_to_parsing">
<ellipse fill="none" stroke="#000000" cx="199.545" cy="-378" rx="68.7879" ry="18"/>
<text text-anchor="middle" x="199.545" y="-374.3" font-family="Times,serif" font-size="14.00" fill="#000000">intro_to_parsing</text>
</a>
</g>
</g>
<!-- ssp -->
<g id="node14" class="node">
<title>ssp</title>
<g id="a_node14"><a xlink:href="simple-sql-parser/latest/" xlink:title="simple&#45;sql&#45;parser">
<ellipse fill="none" stroke="#000000" cx="228.545" cy="-306" rx="72.2875" ry="18"/>
<text text-anchor="middle" x="228.545" y="-302.3" font-family="Times,serif" font-size="14.00" fill="#000000">simple&#45;sql&#45;parser</text>
</a>
</g>
</g>
<!-- itp&#45;&gt;ssp -->
<g id="edge3" class="edge">
<title>itp&#45;&gt;ssp</title>
<path fill="none" stroke="#000000" d="M206.8629,-359.8314C210.0814,-351.8406 213.9315,-342.2819 217.4882,-333.4514"/>
<polygon fill="#000000" stroke="#000000" points="220.8402,-334.4969 221.3299,-323.9134 214.3471,-331.8816 220.8402,-334.4969"/>
</g>
<!-- bdbms -->
<g id="node3" class="node">
<title>bdbms</title>
<g id="a_node3"><a xlink:href="building-a-dbms/" xlink:title="building&#45;a&#45;dbms">
<ellipse fill="none" stroke="#999999" cx="509.545" cy="-162" rx="69.5877" ry="18"/>
<text text-anchor="middle" x="509.545" y="-158.3" font-family="Times,serif" font-size="14.00" fill="#999999">building&#45;a&#45;dbms</text>
</a>
</g>
</g>
<!-- ssdbms1 -->
<g id="node16" class="node">
<title>ssdbms1</title>
<g id="a_node16"><a xlink:href="simple-sql-dbms-1/" xlink:title="simple&#45;sql&#45;dbms&#45;1">
<ellipse fill="none" stroke="#999999" cx="495.545" cy="-90" rx="77.1866" ry="18"/>
<text text-anchor="middle" x="495.545" y="-86.3" font-family="Times,serif" font-size="14.00" fill="#999999">simple&#45;sql&#45;dbms&#45;1</text>
</a>
</g>
</g>
<!-- bdbms&#45;&gt;ssdbms1 -->
<g id="edge20" class="edge">
<title>bdbms&#45;&gt;ssdbms1</title>
<path fill="none" stroke="#999999" d="M506.0122,-143.8314C504.5149,-136.131 502.7344,-126.9743 501.0704,-118.4166"/>
<polygon fill="#999999" stroke="#999999" points="504.4698,-117.5614 499.1253,-108.4133 497.5985,-118.8975 504.4698,-117.5614"/>
</g>
<!-- sec -->
<g id="node4" class="node">
<title>sec</title>
<g id="a_node4"><a xlink:href="security/" xlink:title="security">
<ellipse fill="none" stroke="#999999" cx="629.545" cy="-90" rx="38.1938" ry="18"/>
<text text-anchor="middle" x="629.545" y="-86.3" font-family="Times,serif" font-size="14.00" fill="#999999">security</text>
</a>
</g>
</g>
<!-- ssdbms2 -->
<g id="node17" class="node">
<title>ssdbms2</title>
<g id="a_node17"><a xlink:href="simple-sql-dbms-2/" xlink:title="simple&#45;sql&#45;dbms&#45;2">
<ellipse fill="none" stroke="#999999" cx="420.545" cy="-18" rx="77.1866" ry="18"/>
<text text-anchor="middle" x="420.545" y="-14.3" font-family="Times,serif" font-size="14.00" fill="#999999">simple&#45;sql&#45;dbms&#45;2</text>
</a>
</g>
</g>
<!-- sec&#45;&gt;ssdbms2 -->
<g id="edge18" class="edge">
<title>sec&#45;&gt;ssdbms2</title>
<path fill="none" stroke="#999999" d="M599.6465,-78.6029C593.665,-76.375 587.4159,-74.0846 581.545,-72 546.4482,-59.5379 506.7843,-46.2255 475.6073,-35.9366"/>
<polygon fill="#999999" stroke="#999999" points="476.3927,-32.5104 465.7997,-32.7072 474.2034,-39.1593 476.3927,-32.5104"/>
</g>
<!-- uq -->
<g id="node5" class="node">
<title>uq</title>
<g id="a_node5"><a xlink:href="understanding-queries/" xlink:title="understanding&#45;queries">
<ellipse fill="none" stroke="#999999" cx="332.545" cy="-162" rx="89.0842" ry="18"/>
<text text-anchor="middle" x="332.545" y="-158.3" font-family="Times,serif" font-size="14.00" fill="#999999">understanding&#45;queries</text>
</a>
</g>
</g>
<!-- cbo -->
<g id="node10" class="node">
<title>cbo</title>
<g id="a_node10"><a xlink:href="cost-based-optimiser/" xlink:title="cost&#45;based&#45;optimiser">
<ellipse fill="none" stroke="#999999" cx="190.545" cy="-90" rx="84.485" ry="18"/>
<text text-anchor="middle" x="190.545" y="-86.3" font-family="Times,serif" font-size="14.00" fill="#999999">cost&#45;based&#45;optimiser</text>
</a>
</g>
</g>
<!-- uq&#45;&gt;cbo -->
<g id="edge15" class="edge">
<title>uq&#45;&gt;cbo</title>
<path fill="none" stroke="#999999" d="M299.2523,-145.1192C279.401,-135.0538 254.0095,-122.1792 232.7595,-111.4045"/>
<polygon fill="#999999" stroke="#999999" points="234.1309,-108.1758 223.6291,-106.775 230.9653,-114.4191 234.1309,-108.1758"/>
</g>
<!-- e -->
<g id="node11" class="node">
<title>e</title>
<g id="a_node11"><a xlink:href="extensibility/" xlink:title="extensibility">
<ellipse fill="none" stroke="#999999" cx="346.545" cy="-90" rx="53.8905" ry="18"/>
<text text-anchor="middle" x="346.545" y="-86.3" font-family="Times,serif" font-size="14.00" fill="#999999">extensibility</text>
</a>
</g>
</g>
<!-- uq&#45;&gt;e -->
<g id="edge19" class="edge">
<title>uq&#45;&gt;e</title>
<path fill="none" stroke="#999999" d="M336.0778,-143.8314C337.5751,-136.131 339.3555,-126.9743 341.0195,-118.4166"/>
<polygon fill="#999999" stroke="#999999" points="344.4915,-118.8975 342.9646,-108.4133 337.6202,-117.5614 344.4915,-118.8975"/>
</g>
<!-- uq&#45;&gt;ssdbms1 -->
<g id="edge14" class="edge">
<title>uq&#45;&gt;ssdbms1</title>
<path fill="none" stroke="#999999" d="M369.9405,-145.4817C393.7766,-134.9529 424.8154,-121.2425 450.0738,-110.0854"/>
<polygon fill="#999999" stroke="#999999" points="451.7111,-113.1885 459.4443,-105.9463 448.8827,-106.7854 451.7111,-113.1885"/>
</g>
<!-- sds -->
<g id="node6" class="node">
<title>sds</title>
<g id="a_node6"><a xlink:href="simple-durable-storage/" xlink:title="simple&#45;durable&#45;storage">
<ellipse fill="none" stroke="#999999" cx="484.545" cy="-306" rx="92.0841" ry="18"/>
<text text-anchor="middle" x="484.545" y="-302.3" font-family="Times,serif" font-size="14.00" fill="#999999">simple&#45;durable&#45;storage</text>
</a>
</g>
</g>
<!-- sds&#45;&gt;uq -->
<g id="edge6" class="edge">
<title>sds&#45;&gt;uq</title>
<path fill="none" stroke="#999999" d="M471.4562,-287.9317C457.1821,-268.8832 433.0795,-238.5668 408.545,-216 396.3296,-204.7643 381.7067,-193.8659 368.5648,-184.8372"/>
<polygon fill="#999999" stroke="#999999" points="370.4315,-181.8746 360.1827,-179.1892 366.52,-187.6798 370.4315,-181.8746"/>
</g>
<!-- stt -->
<g id="node7" class="node">
<title>stt</title>
<g id="a_node7"><a xlink:href="single-threaded-transactions/" xlink:title="single&#45;threaded&#45;transactions">
<ellipse fill="none" stroke="#999999" cx="565.545" cy="-234" rx="109.6807" ry="18"/>
<text text-anchor="middle" x="565.545" y="-230.3" font-family="Times,serif" font-size="14.00" fill="#999999">single&#45;threaded&#45;transactions</text>
</a>
</g>
</g>
<!-- sds&#45;&gt;stt -->
<g id="edge7" class="edge">
<title>sds&#45;&gt;stt</title>
<path fill="none" stroke="#999999" d="M504.5675,-288.2022C514.5952,-279.2887 526.8959,-268.3548 537.8164,-258.6476"/>
<polygon fill="#999999" stroke="#999999" points="540.3233,-261.1022 545.4721,-251.8425 535.6727,-255.8703 540.3233,-261.1022"/>
</g>
<!-- ct -->
<g id="node8" class="node">
<title>ct</title>
<g id="a_node8"><a xlink:href="concurrent-transactions/" xlink:title="concurrent&#45;transactions">
<ellipse fill="none" stroke="#999999" cx="696.545" cy="-162" rx="92.8835" ry="18"/>
<text text-anchor="middle" x="696.545" y="-158.3" font-family="Times,serif" font-size="14.00" fill="#999999">concurrent&#45;transactions</text>
</a>
</g>
</g>
<!-- stt&#45;&gt;ct -->
<g id="edge8" class="edge">
<title>stt&#45;&gt;ct</title>
<path fill="none" stroke="#999999" d="M597.2564,-216.5708C615.1677,-206.7264 637.721,-194.3308 656.8042,-183.8422"/>
<polygon fill="#999999" stroke="#999999" points="658.4999,-186.9042 665.5776,-179.0202 655.1282,-180.7697 658.4999,-186.9042"/>
</g>
<!-- dt -->
<g id="node9" class="node">
<title>dt</title>
<g id="a_node9"><a xlink:href="distributed-transactions/" xlink:title="distributed&#45;transactions">
<ellipse fill="none" stroke="#999999" cx="778.545" cy="-90" rx="92.8835" ry="18"/>
<text text-anchor="middle" x="778.545" y="-86.3" font-family="Times,serif" font-size="14.00" fill="#999999">distributed&#45;transactions</text>
</a>
</g>
</g>
<!-- ct&#45;&gt;dt -->
<g id="edge11" class="edge">
<title>ct&#45;&gt;dt</title>
<path fill="none" stroke="#999999" d="M716.8147,-144.2022C727.0425,-135.2217 739.6061,-124.1902 750.7232,-114.4289"/>
<polygon fill="#999999" stroke="#999999" points="753.3034,-116.8211 758.5085,-107.593 748.6847,-111.561 753.3034,-116.8211"/>
</g>
<!-- ct&#45;&gt;ssdbms1 -->
<g id="edge12" class="edge">
<title>ct&#45;&gt;ssdbms1</title>
<path fill="none" stroke="#999999" d="M651.9366,-146.0209C621.1213,-134.9826 580.0266,-120.2621 547.6959,-108.6809"/>
<polygon fill="#999999" stroke="#999999" points="548.5592,-105.2724 537.9647,-105.1951 546.1986,-111.8624 548.5592,-105.2724"/>
</g>
<!-- cbo&#45;&gt;ssdbms2 -->
<g id="edge16" class="edge">
<title>cbo&#45;&gt;ssdbms2</title>
<path fill="none" stroke="#999999" d="M238.2011,-75.0816C274.9548,-63.576 325.8782,-47.6348 364.5711,-35.5223"/>
<polygon fill="#999999" stroke="#999999" points="365.631,-38.858 374.1286,-32.5303 363.5397,-32.1777 365.631,-38.858"/>
</g>
<!-- e&#45;&gt;ssdbms2 -->
<g id="edge17" class="edge">
<title>e&#45;&gt;ssdbms2</title>
<path fill="none" stroke="#999999" d="M364.0819,-72.937C373.3678,-63.9021 384.9402,-52.6425 395.1863,-42.6733"/>
<polygon fill="#999999" stroke="#999999" points="397.6346,-45.1746 402.3611,-35.6924 392.7531,-40.1574 397.6346,-45.1746"/>
</g>
<!-- tr -->
<g id="node12" class="node">
<title>tr</title>
<g id="a_node12"><a xlink:href="intro-to-transactions/" xlink:title="intro&#45;to&#45;transactions">
<ellipse fill="none" stroke="#999999" cx="694.545" cy="-306" rx="81.7856" ry="18"/>
<text text-anchor="middle" x="694.545" y="-302.3" font-family="Times,serif" font-size="14.00" fill="#999999">intro&#45;to&#45;transactions</text>
</a>
</g>
</g>
<!-- tr&#45;&gt;stt -->
<g id="edge9" class="edge">
<title>tr&#45;&gt;stt</title>
<path fill="none" stroke="#999999" d="M664.3002,-289.1192C646.6852,-279.2876 624.2683,-266.7758 605.246,-256.1587"/>
<polygon fill="#999999" stroke="#999999" points="606.934,-253.0926 596.4963,-251.2751 603.5224,-259.205 606.934,-253.0926"/>
</g>
<!-- tr&#45;&gt;ct -->
<g id="edge10" class="edge">
<title>tr&#45;&gt;ct</title>
<path fill="none" stroke="#999999" d="M694.7983,-287.7623C695.1394,-263.201 695.7499,-219.2474 696.1512,-190.3541"/>
<polygon fill="#999999" stroke="#999999" points="699.6544,-190.1373 696.2937,-180.0896 692.6551,-190.04 699.6544,-190.1373"/>
</g>
<!-- hssqlppp -->
<g id="node13" class="node">
<title>hssqlppp</title>
<g id="a_node13"><a xlink:href="hssqlppp/latest" xlink:title="hssqlppp">
<ellipse fill="none" stroke="#000000" cx="328.545" cy="-378" rx="42.4939" ry="18"/>
<text text-anchor="middle" x="328.545" y="-374.3" font-family="Times,serif" font-size="14.00" fill="#000000">hssqlppp</text>
</a>
</g>
</g>
<!-- hssqlppp&#45;&gt;ssp -->
<g id="edge1" class="edge">
<title>hssqlppp&#45;&gt;ssp</title>
<path fill="none" stroke="#000000" stroke-dasharray="1,5" d="M306.8465,-362.3771C293.4012,-352.6965 275.8849,-340.0847 260.8296,-329.2449"/>
<polygon fill="#000000" stroke="#000000" points="262.4595,-326.1056 252.2991,-323.1029 258.3693,-331.7864 262.4595,-326.1056"/>
</g>
<!-- ssf -->
<g id="node15" class="node">
<title>ssf</title>
<g id="a_node15"><a xlink:href="simple-sql-frontend/" xlink:title="simple&#45;sql&#45;frontend">
<ellipse fill="none" stroke="#999999" cx="318.545" cy="-234" rx="80.6858" ry="18"/>
<text text-anchor="middle" x="318.545" y="-230.3" font-family="Times,serif" font-size="14.00" fill="#999999">simple&#45;sql&#45;frontend</text>
</a>
</g>
</g>
<!-- hssqlppp&#45;&gt;ssf -->
<g id="edge2" class="edge">
<title>hssqlppp&#45;&gt;ssf</title>
<path fill="none" stroke="#999999" stroke-dasharray="1,5" d="M327.2785,-359.7623C325.5728,-335.201 322.5205,-291.2474 320.514,-262.3541"/>
<polygon fill="#999999" stroke="#999999" points="323.9857,-261.8231 319.8012,-252.0896 317.0025,-262.3081 323.9857,-261.8231"/>
</g>
<!-- ssp&#45;&gt;ssf -->
<g id="edge4" class="edge">
<title>ssp&#45;&gt;ssf</title>
<path fill="none" stroke="#999999" d="M250.3315,-288.5708C261.8537,-279.353 276.1721,-267.8983 288.7113,-257.8669"/>
<polygon fill="#999999" stroke="#999999" points="291.0249,-260.4983 296.6472,-251.5182 286.652,-255.0322 291.0249,-260.4983"/>
</g>
<!-- ssf&#45;&gt;uq -->
<g id="edge5" class="edge">
<title>ssf&#45;&gt;uq</title>
<path fill="none" stroke="#999999" d="M322.0778,-215.8314C323.5751,-208.131 325.3555,-198.9743 327.0195,-190.4166"/>
<polygon fill="#999999" stroke="#999999" points="330.4915,-190.8975 328.9646,-180.4133 323.6202,-189.5614 330.4915,-190.8975"/>
</g>
<!-- ssdbms1&#45;&gt;ssdbms2 -->
<g id="edge13" class="edge">
<title>ssdbms1&#45;&gt;ssdbms2</title>
<path fill="none" stroke="#999999" d="M477.0057,-72.2022C467.7417,-63.3088 456.3827,-52.4042 446.2882,-42.7135"/>
<polygon fill="#999999" stroke="#999999" points="448.5088,-39.9935 438.8711,-35.593 443.6611,-45.0432 448.5088,-39.9935"/>
</g>
<!-- tool -->
<g id="node18" class="node">
<title>tool</title>
<g id="a_node18"><a xlink:href="sql-dbms-tool/" xlink:title="sql&#45;dbms&#45;tool">
<ellipse fill="none" stroke="#999999" cx="448.545" cy="-378" rx="59.5901" ry="18"/>
<text text-anchor="middle" x="448.545" y="-374.3" font-family="Times,serif" font-size="14.00" fill="#999999">sql&#45;dbms&#45;tool</text>
</a>
</g>
</g>
</g>
</svg>
