<?xml version="1.0" encoding="UTF-8" standalone="no"?>
<!DOCTYPE svg PUBLIC "-//W3C//DTD SVG 1.1//EN"
 "http://www.w3.org/Graphics/SVG/1.1/DTD/svg11.dtd">
<!-- Generated by graphviz version 2.38.0 (20140413.2041)
 -->
<!-- Title: %3 Pages: 1 -->
<svg width="879pt" height="404pt"
 viewBox="0.00 0.00 879.49 404.00" xmlns="http://www.w3.org/2000/svg" xmlns:xlink="http://www.w3.org/1999/xlink">
<g id="graph0" class="graph" transform="scale(1 1) rotate(0) translate(4 400)">
<title>project plan</title>
<polygon fill="white" stroke="none" points="-4,4 -4,-400 875.487,-400 875.487,4 -4,4"/>
<!-- so -->
<g id="node1" class="node"><title>so</title>
<g id="a_node1"><a xlink:href="sql-overview/" xlink:title="sql&#45;overview">
<ellipse fill="none" stroke="black" cx="56.545" cy="-378" rx="56.59" ry="18"/>
<text text-anchor="middle" x="56.545" y="-374.3" font-family="Times,serif" font-size="14.00">sql&#45;overview</text>
</a>
</g>
</g>
<!-- itp -->
<g id="node2" class="node"><title>itp</title>
<g id="a_node2"><a xlink:href="intro_to_parsing/" xlink:title="intro_to_parsing">
<ellipse fill="none" stroke="black" cx="199.545" cy="-378" rx="68.7879" ry="18"/>
<text text-anchor="middle" x="199.545" y="-374.3" font-family="Times,serif" font-size="14.00">intro_to_parsing</text>
</a>
</g>
</g>
<!-- ssp -->
<g id="node14" class="node"><title>ssp</title>
<g id="a_node14"><a xlink:href="simple-sql-parser/latest/" xlink:title="simple&#45;sql&#45;parser">
<ellipse fill="none" stroke="black" cx="228.545" cy="-306" rx="72.2875" ry="18"/>
<text text-anchor="middle" x="228.545" y="-302.3" font-family="Times,serif" font-size="14.00">simple&#45;sql&#45;parser</text>
</a>
</g>
</g>
<!-- itp&#45;&gt;ssp -->
<g id="edge3" class="edge"><title>itp&#45;&gt;ssp</title>
<path fill="none" stroke="black" d="M206.565,-360.055C209.829,-352.176 213.79,-342.617 217.445,-333.794"/>
<polygon fill="black" stroke="black" points="220.794,-334.853 221.388,-324.275 214.327,-332.174 220.794,-334.853"/>
</g>
<!-- bdbms -->
<g id="node3" class="node"><title>bdbms</title>
<g id="a_node3"><a xlink:href="building-a-dbms/" xlink:title="building&#45;a&#45;dbms">
<ellipse fill="none" stroke="#999999" cx="509.545" cy="-162" rx="69.5877" ry="18"/>
<text text-anchor="middle" x="509.545" y="-158.3" font-family="Times,serif" font-size="14.00" fill="#999999">building&#45;a&#45;dbms</text>
</a>
</g>
</g>
<!-- ssdbms1 -->
<g id="node16" class="node"><title>ssdbms1</title>
<g id="a_node16"><a xlink:href="simple-sql-dbms-1/" xlink:title="simple&#45;sql&#45;dbms&#45;1">
<ellipse fill="none" stroke="#999999" cx="495.545" cy="-90" rx="77.1866" ry="18"/>
<text text-anchor="middle" x="495.545" y="-86.3" font-family="Times,serif" font-size="14.00" fill="#999999">simple&#45;sql&#45;dbms&#45;1</text>
</a>
</g>
</g>
<!-- bdbms&#45;&gt;ssdbms1 -->
<g id="edge20" class="edge"><title>bdbms&#45;&gt;ssdbms1</title>
<path fill="none" stroke="#999999" d="M506.084,-143.697C504.542,-135.983 502.687,-126.712 500.967,-118.112"/>
<polygon fill="#999999" stroke="#999999" points="504.359,-117.224 498.966,-108.104 497.495,-118.597 504.359,-117.224"/>
</g>
<!-- sec -->
<g id="node4" class="node"><title>sec</title>
<g id="a_node4"><a xlink:href="security/" xlink:title="security">
<ellipse fill="none" stroke="#999999" cx="629.545" cy="-90" rx="38.1938" ry="18"/>
<text text-anchor="middle" x="629.545" y="-86.3" font-family="Times,serif" font-size="14.00" fill="#999999">security</text>
</a>
</g>
</g>
<!-- ssdbms2 -->
<g id="node17" class="node"><title>ssdbms2</title>
<g id="a_node17"><a xlink:href="simple-sql-dbms-2/" xlink:title="simple&#45;sql&#45;dbms&#45;2">
<ellipse fill="none" stroke="#999999" cx="420.545" cy="-18" rx="77.1866" ry="18"/>
<text text-anchor="middle" x="420.545" y="-14.3" font-family="Times,serif" font-size="14.00" fill="#999999">simple&#45;sql&#45;dbms&#45;2</text>
</a>
</g>
</g>
<!-- sec&#45;&gt;ssdbms2 -->
<g id="edge18" class="edge"><title>sec&#45;&gt;ssdbms2</title>
<path fill="none" stroke="#999999" d="M599.879,-78.3767C593.822,-76.2405 587.485,-74.0292 581.545,-72 545.739,-59.7674 505.284,-46.452 473.884,-36.2277"/>
<polygon fill="#999999" stroke="#999999" points="474.617,-32.7857 464.024,-33.022 472.452,-39.4427 474.617,-32.7857"/>
</g>
<!-- uq -->
<g id="node5" class="node"><title>uq</title>
<g id="a_node5"><a xlink:href="understanding-queries/" xlink:title="understanding&#45;queries">
<ellipse fill="none" stroke="#999999" cx="332.545" cy="-162" rx="89.0842" ry="18"/>
<text text-anchor="middle" x="332.545" y="-158.3" font-family="Times,serif" font-size="14.00" fill="#999999">understanding&#45;queries</text>
</a>
</g>
</g>
<!-- cbo -->
<g id="node10" class="node"><title>cbo</title>
<g id="a_node10"><a xlink:href="cost-based-optimiser/" xlink:title="cost&#45;based&#45;optimiser">
<ellipse fill="none" stroke="#999999" cx="190.545" cy="-90" rx="84.485" ry="18"/>
<text text-anchor="middle" x="190.545" y="-86.3" font-family="Times,serif" font-size="14.00" fill="#999999">cost&#45;based&#45;optimiser</text>
</a>
</g>
</g>
<!-- uq&#45;&gt;cbo -->
<g id="edge15" class="edge"><title>uq&#45;&gt;cbo</title>
<path fill="none" stroke="#999999" d="M300.323,-145.116C279.989,-135.092 253.533,-122.05 231.688,-111.282"/>
<polygon fill="#999999" stroke="#999999" points="233.156,-108.104 222.639,-106.821 230.061,-114.382 233.156,-108.104"/>
</g>
<!-- e -->
<g id="node11" class="node"><title>e</title>
<g id="a_node11"><a xlink:href="extensibility/" xlink:title="extensibility">
<ellipse fill="none" stroke="#999999" cx="346.545" cy="-90" rx="53.8905" ry="18"/>
<text text-anchor="middle" x="346.545" y="-86.3" font-family="Times,serif" font-size="14.00" fill="#999999">extensibility</text>
</a>
</g>
</g>
<!-- uq&#45;&gt;e -->
<g id="edge19" class="edge"><title>uq&#45;&gt;e</title>
<path fill="none" stroke="#999999" d="M336.006,-143.697C337.548,-135.983 339.402,-126.712 341.122,-118.112"/>
<polygon fill="#999999" stroke="#999999" points="344.595,-118.597 343.124,-108.104 337.731,-117.224 344.595,-118.597"/>
</g>
<!-- uq&#45;&gt;ssdbms1 -->
<g id="edge14" class="edge"><title>uq&#45;&gt;ssdbms1</title>
<path fill="none" stroke="#999999" d="M368.72,-145.465C393.028,-135.026 425.224,-121.199 451.093,-110.09"/>
<polygon fill="#999999" stroke="#999999" points="452.504,-113.293 460.311,-106.131 449.742,-106.861 452.504,-113.293"/>
</g>
<!-- sds -->
<g id="node6" class="node"><title>sds</title>
<g id="a_node6"><a xlink:href="simple-durable-storage/" xlink:title="simple&#45;durable&#45;storage">
<ellipse fill="none" stroke="#999999" cx="484.545" cy="-306" rx="92.0841" ry="18"/>
<text text-anchor="middle" x="484.545" y="-302.3" font-family="Times,serif" font-size="14.00" fill="#999999">simple&#45;durable&#45;storage</text>
</a>
</g>
</g>
<!-- sds&#45;&gt;uq -->
<g id="edge6" class="edge"><title>sds&#45;&gt;uq</title>
<path fill="none" stroke="#999999" d="M472.235,-288.135C458.07,-269.351 433.532,-238.655 408.545,-216 396.13,-204.744 381.233,-193.871 367.931,-184.935"/>
<polygon fill="#999999" stroke="#999999" points="369.738,-181.935 359.461,-179.358 365.888,-187.781 369.738,-181.935"/>
</g>
<!-- stt -->
<g id="node7" class="node"><title>stt</title>
<g id="a_node7"><a xlink:href="single-threaded-transactions/" xlink:title="single&#45;threaded&#45;transactions">
<ellipse fill="none" stroke="#999999" cx="565.545" cy="-234" rx="109.681" ry="18"/>
<text text-anchor="middle" x="565.545" y="-230.3" font-family="Times,serif" font-size="14.00" fill="#999999">single&#45;threaded&#45;transactions</text>
</a>
</g>
</g>
<!-- sds&#45;&gt;stt -->
<g id="edge7" class="edge"><title>sds&#45;&gt;stt</title>
<path fill="none" stroke="#999999" d="M504.153,-288.055C514.401,-279.199 527.106,-268.219 538.295,-258.549"/>
<polygon fill="#999999" stroke="#999999" points="540.84,-260.976 546.118,-251.789 536.263,-255.68 540.84,-260.976"/>
</g>
<!-- ct -->
<g id="node8" class="node"><title>ct</title>
<g id="a_node8"><a xlink:href="concurrent-transactions/" xlink:title="concurrent&#45;transactions">
<ellipse fill="none" stroke="#999999" cx="696.545" cy="-162" rx="92.8835" ry="18"/>
<text text-anchor="middle" x="696.545" y="-158.3" font-family="Times,serif" font-size="14.00" fill="#999999">concurrent&#45;transactions</text>
</a>
</g>
</g>
<!-- stt&#45;&gt;ct -->
<g id="edge8" class="edge"><title>stt&#45;&gt;ct</title>
<path fill="none" stroke="#999999" d="M596.259,-216.588C614.538,-206.82 637.911,-194.331 657.492,-183.868"/>
<polygon fill="#999999" stroke="#999999" points="659.305,-186.868 666.476,-179.068 656.006,-180.694 659.305,-186.868"/>
</g>
<!-- dt -->
<g id="node9" class="node"><title>dt</title>
<g id="a_node9"><a xlink:href="distributed-transactions/" xlink:title="distributed&#45;transactions">
<ellipse fill="none" stroke="#999999" cx="778.545" cy="-90" rx="92.8835" ry="18"/>
<text text-anchor="middle" x="778.545" y="-86.3" font-family="Times,serif" font-size="14.00" fill="#999999">distributed&#45;transactions</text>
</a>
</g>
</g>
<!-- ct&#45;&gt;dt -->
<g id="edge11" class="edge"><title>ct&#45;&gt;dt</title>
<path fill="none" stroke="#999999" d="M716.395,-144.055C726.769,-135.199 739.632,-124.219 750.959,-114.549"/>
<polygon fill="#999999" stroke="#999999" points="753.545,-116.944 758.878,-107.789 749,-111.62 753.545,-116.944"/>
</g>
<!-- ct&#45;&gt;ssdbms1 -->
<g id="edge12" class="edge"><title>ct&#45;&gt;ssdbms1</title>
<path fill="none" stroke="#999999" d="M653.425,-145.983C621.929,-135.014 579.124,-120.107 546.031,-108.582"/>
<polygon fill="#999999" stroke="#999999" points="547.129,-105.259 536.535,-105.275 544.827,-111.869 547.129,-105.259"/>
</g>
<!-- cbo&#45;&gt;ssdbms2 -->
<g id="edge16" class="edge"><title>cbo&#45;&gt;ssdbms2</title>
<path fill="none" stroke="#999999" d="M236.812,-74.9187C274.059,-63.5827 326.5,-47.6224 365.828,-35.6531"/>
<polygon fill="#999999" stroke="#999999" points="366.979,-38.9613 375.527,-32.7013 364.941,-32.2646 366.979,-38.9613"/>
</g>
<!-- e&#45;&gt;ssdbms2 -->
<g id="edge17" class="edge"><title>e&#45;&gt;ssdbms2</title>
<path fill="none" stroke="#999999" d="M363.708,-72.7646C373.191,-63.7947 385.141,-52.4902 395.634,-42.5643"/>
<polygon fill="#999999" stroke="#999999" points="398.102,-45.0481 402.961,-35.6334 393.291,-39.9628 398.102,-45.0481"/>
</g>
<!-- tr -->
<g id="node12" class="node"><title>tr</title>
<g id="a_node12"><a xlink:href="intro-to-transactions/" xlink:title="intro&#45;to&#45;transactions">
<ellipse fill="none" stroke="#999999" cx="694.545" cy="-306" rx="81.7856" ry="18"/>
<text text-anchor="middle" x="694.545" y="-302.3" font-family="Times,serif" font-size="14.00" fill="#999999">intro&#45;to&#45;transactions</text>
</a>
</g>
</g>
<!-- tr&#45;&gt;stt -->
<g id="edge9" class="edge"><title>tr&#45;&gt;stt</title>
<path fill="none" stroke="#999999" d="M665.273,-289.116C647.433,-279.435 624.406,-266.94 604.974,-256.396"/>
<polygon fill="#999999" stroke="#999999" points="606.506,-253.245 596.047,-251.552 603.167,-259.397 606.506,-253.245"/>
</g>
<!-- tr&#45;&gt;ct -->
<g id="edge10" class="edge"><title>tr&#45;&gt;ct</title>
<path fill="none" stroke="#999999" d="M694.786,-287.871C695.127,-263.67 695.753,-219.211 696.159,-190.393"/>
<polygon fill="#999999" stroke="#999999" points="699.662,-190.238 696.303,-180.189 692.662,-190.139 699.662,-190.238"/>
</g>
<!-- hssqlppp -->
<g id="node13" class="node"><title>hssqlppp</title>
<g id="a_node13"><a xlink:href="hssqlppp/latest" xlink:title="hssqlppp">
<ellipse fill="none" stroke="black" cx="328.545" cy="-378" rx="42.4939" ry="18"/>
<text text-anchor="middle" x="328.545" y="-374.3" font-family="Times,serif" font-size="14.00">hssqlppp</text>
</a>
</g>
</g>
<!-- hssqlppp&#45;&gt;ssp -->
<g id="edge1" class="edge"><title>hssqlppp&#45;&gt;ssp</title>
<path fill="none" stroke="black" stroke-dasharray="1,5" d="M307.338,-362.155C293.599,-352.538 275.462,-339.842 260.052,-329.055"/>
<polygon fill="black" stroke="black" points="262.017,-326.158 251.817,-323.29 258.002,-331.892 262.017,-326.158"/>
</g>
<!-- ssf -->
<g id="node15" class="node"><title>ssf</title>
<g id="a_node15"><a xlink:href="simple-sql-frontend/" xlink:title="simple&#45;sql&#45;frontend">
<ellipse fill="none" stroke="#999999" cx="318.545" cy="-234" rx="80.6858" ry="18"/>
<text text-anchor="middle" x="318.545" y="-230.3" font-family="Times,serif" font-size="14.00" fill="#999999">simple&#45;sql&#45;frontend</text>
</a>
</g>
</g>
<!-- hssqlppp&#45;&gt;ssf -->
<g id="edge2" class="edge"><title>hssqlppp&#45;&gt;ssf</title>
<path fill="none" stroke="#999999" stroke-dasharray="1,5" d="M327.339,-359.871C325.634,-335.67 322.503,-291.211 320.474,-262.393"/>
<polygon fill="#999999" stroke="#999999" points="323.949,-261.919 319.755,-252.189 316.967,-262.41 323.949,-261.919"/>
</g>
<!-- ssp&#45;&gt;ssf -->
<g id="edge4" class="edge"><title>ssp&#45;&gt;ssf</title>
<path fill="none" stroke="#999999" d="M249.419,-288.765C261.261,-279.554 276.268,-267.882 289.27,-257.769"/>
<polygon fill="#999999" stroke="#999999" points="291.728,-260.292 297.472,-251.39 287.43,-254.766 291.728,-260.292"/>
</g>
<!-- ssf&#45;&gt;uq -->
<g id="edge5" class="edge"><title>ssf&#45;&gt;uq</title>
<path fill="none" stroke="#999999" d="M322.006,-215.697C323.548,-207.983 325.402,-198.712 327.122,-190.112"/>
<polygon fill="#999999" stroke="#999999" points="330.595,-190.597 329.124,-180.104 323.731,-189.224 330.595,-190.597"/>
</g>
<!-- ssdbms1&#45;&gt;ssdbms2 -->
<g id="edge13" class="edge"><title>ssdbms1&#45;&gt;ssdbms2</title>
<path fill="none" stroke="#999999" d="M477.771,-72.411C468.22,-63.4969 456.283,-52.3554 445.786,-42.558"/>
<polygon fill="#999999" stroke="#999999" points="448.15,-39.977 438.451,-35.7125 443.374,-45.0944 448.15,-39.977"/>
</g>
<!-- tool -->
<g id="node18" class="node"><title>tool</title>
<g id="a_node18"><a xlink:href="sql-dbms-tool/" xlink:title="sql&#45;dbms&#45;tool">
<ellipse fill="none" stroke="#999999" cx="448.545" cy="-378" rx="59.5901" ry="18"/>
<text text-anchor="middle" x="448.545" y="-374.3" font-family="Times,serif" font-size="14.00" fill="#999999">sql&#45;dbms&#45;tool</text>
</a>
</g>
</g>
</g>
</svg>
